<svg width="26" height="19" viewBox="0 0 26 19" fill="none" xmlns="http://www.w3.org/2000/svg">
<path d="M10 17.5C14.9706 17.5 19 13.8063 19 9.25C19 4.69365 14.9706 1 10 1C5.02944 1 1 4.69365 1 9.25C1 11.3536 1.85891 13.2734 3.2728 14.7306C3.70538 15.1765 4.01357 15.7692 3.85933 16.371C3.68829 17.0383 3.368 17.6459 2.93579 18.156C3.0918 18.1839 3.25 18.2058 3.40967 18.2213C3.60376 18.2403 3.80078 18.25 4 18.25C5.28201 18.25 6.47016 17.8479 7.44517 17.1629C8.25506 17.3823 9.11253 17.5 10 17.5Z" stroke="#252525" stroke-width="1.5" stroke-linecap="round" stroke-linejoin="round"/>
<path d="M23.25 1.75C23.25 1.33579 22.9142 1 22.5 1C22.0858 1 21.75 1.33579 21.75 1.75V3.75H19.75C19.3358 3.75 19 4.08579 19 4.5C19 4.91421 19.3358 5.25 19.75 5.25H21.75V7.25C21.75 7.66421 22.0858 8 22.5 8C22.9142 8 23.25 7.66421 23.25 7.25V5.25H25.25C25.6642 5.25 26 4.91421 26 4.5C26 4.08579 25.6642 3.75 25.25 3.75H23.25V1.75Z" fill="#252525"/>
</svg>
