<svg width="25" height="24" viewBox="0 0 25 24" fill="none" xmlns="http://www.w3.org/2000/svg">
<path d="M9.99355 3.94469C10.084 3.40223 10.5533 3.00464 11.1032 3.00464H13.6972C14.2472 3.00464 14.7165 3.40223 14.8069 3.94469L15.0204 5.22574C15.0828 5.59978 15.3327 5.91135 15.6645 6.095C15.7387 6.13606 15.812 6.17847 15.8844 6.22221C16.2095 6.41848 16.6048 6.4795 16.9603 6.3463L18.1772 5.89042C18.6922 5.69748 19.2712 5.90515 19.5462 6.38141L20.8432 8.62785C21.1181 9.10412 21.0085 9.70937 20.5839 10.0589L19.5795 10.8857C19.287 11.1265 19.142 11.4984 19.149 11.8772C19.1498 11.9196 19.1502 11.9621 19.1502 12.0046C19.1502 12.0472 19.1498 12.0897 19.149 12.1321C19.142 12.5109 19.287 12.8827 19.5795 13.1235L20.5839 13.9504C21.0085 14.2999 21.1181 14.9051 20.8432 15.3814L19.5462 17.6279C19.2712 18.1041 18.6922 18.3118 18.1772 18.1188L16.9604 17.663C16.6048 17.5298 16.2095 17.5908 15.8844 17.7871C15.812 17.8308 15.7387 17.8732 15.6645 17.9143C15.3327 18.0979 15.0828 18.4095 15.0204 18.7835L14.8069 20.0646C14.7165 20.607 14.2472 21.0046 13.6972 21.0046H11.1032C10.5533 21.0046 10.084 20.607 9.99355 20.0646L9.78004 18.7835C9.7177 18.4095 9.46773 18.0979 9.13596 17.9143C9.06179 17.8732 8.98847 17.8308 8.91604 17.7871C8.591 17.5908 8.19567 17.5298 7.84011 17.663L6.62324 18.1189C6.10825 18.3118 5.52926 18.1041 5.25428 17.6279L3.9573 15.3814C3.68233 14.9052 3.79198 14.2999 4.21656 13.9504L5.22092 13.1236C5.51342 12.8828 5.65842 12.5109 5.65141 12.1321C5.65062 12.0897 5.65023 12.0472 5.65023 12.0046C5.65023 11.9621 5.65062 11.9196 5.65141 11.8772C5.65842 11.4984 5.51342 11.1265 5.22092 10.8857L4.21656 10.0589C3.79198 9.70939 3.68233 9.10413 3.9573 8.62787L5.25428 6.38143C5.52926 5.90516 6.10825 5.6975 6.62324 5.89043L7.84009 6.34631C8.19566 6.47951 8.59099 6.41849 8.91602 6.22222C8.98846 6.17848 9.06178 6.13606 9.13596 6.095C9.46773 5.91135 9.7177 5.59978 9.78004 5.22574L9.99355 3.94469Z" stroke="#504800" stroke-width="1.5" stroke-linecap="round" stroke-linejoin="round"/>
<path d="M15.4 12.0046C15.4 13.6614 14.0569 15.0046 12.4 15.0046C10.7431 15.0046 9.4 13.6614 9.4 12.0046C9.4 10.3477 10.7431 9.00456 12.4 9.00456C14.0569 9.00456 15.4 10.3477 15.4 12.0046Z" stroke="#504800" stroke-width="1.5" stroke-linecap="round" stroke-linejoin="round"/>
</svg>
