<svg width="19" height="20" viewBox="0 0 19 20" fill="none" xmlns="http://www.w3.org/2000/svg">
<path d="M6.99355 1.94469C7.08396 1.40223 7.5533 1.00464 8.10324 1.00464H10.6972C11.2472 1.00464 11.7165 1.40223 11.8069 1.94469L12.0204 3.22574C12.0828 3.59978 12.3327 3.91135 12.6645 4.095C12.7387 4.13606 12.812 4.17847 12.8844 4.22221C13.2095 4.41848 13.6048 4.4795 13.9603 4.3463L15.1772 3.89042C15.6922 3.69748 16.2712 3.90515 16.5462 4.38141L17.8432 6.62785C18.1181 7.10412 18.0085 7.70937 17.5839 8.0589L16.5795 8.88571C16.287 9.12652 16.142 9.49836 16.149 9.87717C16.1498 9.91956 16.1502 9.96205 16.1502 10.0046C16.1502 10.0472 16.1498 10.0897 16.149 10.1321C16.142 10.5109 16.287 10.8827 16.5795 11.1235L17.5839 11.9504C18.0085 12.2999 18.1181 12.9051 17.8432 13.3814L16.5462 15.6279C16.2712 16.1041 15.6922 16.3118 15.1772 16.1188L13.9604 15.663C13.6048 15.5298 13.2095 15.5908 12.8844 15.7871C12.812 15.8308 12.7387 15.8732 12.6645 15.9143C12.3327 16.0979 12.0828 16.4095 12.0204 16.7835L11.8069 18.0646C11.7165 18.607 11.2472 19.0046 10.6972 19.0046H8.10325C7.5533 19.0046 7.08396 18.607 6.99355 18.0646L6.78004 16.7835C6.7177 16.4095 6.46773 16.0979 6.13596 15.9143C6.06179 15.8732 5.98847 15.8308 5.91604 15.7871C5.591 15.5908 5.19567 15.5298 4.84011 15.663L3.62324 16.1189C3.10825 16.3118 2.52926 16.1041 2.25428 15.6279L0.957303 13.3814C0.682331 12.9052 0.791984 12.2999 1.21656 11.9504L2.22092 11.1236C2.51342 10.8828 2.65842 10.5109 2.65141 10.1321C2.65062 10.0897 2.65023 10.0472 2.65023 10.0046C2.65023 9.96206 2.65062 9.91957 2.65141 9.87718C2.65842 9.49837 2.51342 9.12653 2.22092 8.88573L1.21656 8.05891C0.791984 7.70939 0.68233 7.10413 0.957302 6.62787L2.25428 4.38143C2.52926 3.90516 3.10825 3.6975 3.62324 3.89043L4.84009 4.34631C5.19566 4.47951 5.59099 4.41849 5.91602 4.22222C5.98846 4.17848 6.06178 4.13606 6.13596 4.095C6.46773 3.91135 6.7177 3.59978 6.78004 3.22574L6.99355 1.94469Z" stroke="#838383" stroke-width="1.5" stroke-linecap="round" stroke-linejoin="round"/>
<path d="M12.4 10.0046C12.4 11.6614 11.0569 13.0046 9.4 13.0046C7.74314 13.0046 6.4 11.6614 6.4 10.0046C6.4 8.3477 7.74314 7.00456 9.4 7.00456C11.0569 7.00456 12.4 8.3477 12.4 10.0046Z" stroke="#838383" stroke-width="1.5" stroke-linecap="round" stroke-linejoin="round"/>
</svg>
