<svg width="21" height="20" viewBox="0 0 21 20" fill="none" xmlns="http://www.w3.org/2000/svg">
<g clip-path="url(#clip0_1735_2596)">
<path d="M10.8 12.5024C12.1808 12.5024 13.3 11.3832 13.3 10.0024C13.3 8.62173 12.1808 7.50244 10.8 7.50244C9.41934 7.50244 8.30005 8.62173 8.30005 10.0024C8.30005 11.3832 9.41934 12.5024 10.8 12.5024Z" fill="#AAAAAA"/>
<path fill-rule="evenodd" clip-rule="evenodd" d="M1.4643 10.5928C1.31744 10.2112 1.31757 9.78808 1.46466 9.40652C2.90883 5.66032 6.54334 3.00244 10.7986 3.00244C15.056 3.00244 18.692 5.66295 20.1348 9.41207C20.2816 9.79371 20.2815 10.2168 20.1344 10.5984C18.6902 14.3446 15.0557 17.0024 10.8004 17.0024C6.54303 17.0024 2.90702 14.3419 1.4643 10.5928ZM14.8004 10.0024C14.8004 12.2116 13.0096 14.0024 10.8004 14.0024C8.59128 14.0024 6.80042 12.2116 6.80042 10.0024C6.80042 7.7933 8.59128 6.00244 10.8004 6.00244C13.0096 6.00244 14.8004 7.7933 14.8004 10.0024Z" fill="#AAAAAA"/>
</g>
<defs>
<clipPath id="clip0_1735_2596">
<rect width="20" height="20" fill="white" transform="translate(0.800049 0.00244141)"/>
</clipPath>
</defs>
</svg>
