<svg width="26" height="19" viewBox="0 0 26 19" fill="none" xmlns="http://www.w3.org/2000/svg">
<path d="M10 17.5C14.9706 17.5 19 13.8063 19 9.25C19 4.69365 14.9706 1 10 1C5.02944 1 1 4.69365 1 9.25C1 11.3536 1.85891 13.2734 3.2728 14.7306C3.70538 15.1765 4.01357 15.7692 3.85933 16.371C3.68829 17.0383 3.368 17.6459 2.93579 18.156C3.0918 18.1839 3.25 18.2058 3.40967 18.2213C3.60376 18.2403 3.80078 18.25 4 18.25C5.28201 18.25 6.47016 17.8479 7.44517 17.1629C8.25506 17.3823 9.11253 17.5 10 17.5Z" stroke="#252525" stroke-width="1.5" stroke-linecap="round" stroke-linejoin="round"/>
<path d="M16 17.5C16.8875 17.5 17.7449 17.3823 18.5548 17.1629C19.5298 17.8479 20.718 18.25 22 18.25C22.1992 18.25 22.3962 18.2403 22.5903 18.2213C22.75 18.2058 22.9082 18.1839 23.0642 18.156C22.632 17.6459 22.3117 17.0383 22.1407 16.371C21.9864 15.7692 22.2946 15.1765 22.7272 14.7306C24.1411 13.2734 25 11.3536 25 9.25C25 4.69365 20.9706 1.5 16 1.5" stroke="#252525" stroke-width="1.5" stroke-linecap="round" stroke-linejoin="round"/>
</svg>
