<svg width="24" height="25" viewBox="0 0 24 25" fill="none" xmlns="http://www.w3.org/2000/svg">
<path d="M3.75 4.89111C3.75 4.26979 4.25368 3.76611 4.875 3.76611H9.375C9.99632 3.76611 10.5 4.26979 10.5 4.89111V9.39111C10.5 10.0124 9.99632 10.5161 9.375 10.5161H4.875C4.25368 10.5161 3.75 10.0124 3.75 9.39111V4.89111Z" stroke="#494949" stroke-width="1.5" stroke-linecap="round" stroke-linejoin="round"/>
<path d="M3.75 14.6411C3.75 14.0198 4.25368 13.5161 4.875 13.5161H9.375C9.99632 13.5161 10.5 14.0198 10.5 14.6411V19.1411C10.5 19.7624 9.99632 20.2661 9.375 20.2661H4.875C4.25368 20.2661 3.75 19.7624 3.75 19.1411V14.6411Z" stroke="#494949" stroke-width="1.5" stroke-linecap="round" stroke-linejoin="round"/>
<path d="M13.5 4.89111C13.5 4.26979 14.0037 3.76611 14.625 3.76611H19.125C19.7463 3.76611 20.25 4.26979 20.25 4.89111V9.39111C20.25 10.0124 19.7463 10.5161 19.125 10.5161H14.625C14.0037 10.5161 13.5 10.0124 13.5 9.39111V4.89111Z" stroke="#494949" stroke-width="1.5" stroke-linecap="round" stroke-linejoin="round"/>
<path d="M6.75 6.76611H7.5V7.51611H6.75V6.76611Z" stroke="#494949" stroke-width="1.5" stroke-linecap="round" stroke-linejoin="round"/>
<path d="M6.75 16.5161H7.5V17.2661H6.75V16.5161Z" stroke="#494949" stroke-width="1.5" stroke-linecap="round" stroke-linejoin="round"/>
<path d="M16.5 6.76611H17.25V7.51611H16.5V6.76611Z" stroke="#494949" stroke-width="1.5" stroke-linecap="round" stroke-linejoin="round"/>
<path d="M13.5 13.5161H14.25V14.2661H13.5V13.5161Z" stroke="#494949" stroke-width="1.5" stroke-linecap="round" stroke-linejoin="round"/>
<path d="M13.5 19.5161H14.25V20.2661H13.5V19.5161Z" stroke="#494949" stroke-width="1.5" stroke-linecap="round" stroke-linejoin="round"/>
<path d="M19.5 13.5161H20.25V14.2661H19.5V13.5161Z" stroke="#494949" stroke-width="1.5" stroke-linecap="round" stroke-linejoin="round"/>
<path d="M19.5 19.5161H20.25V20.2661H19.5V19.5161Z" stroke="#494949" stroke-width="1.5" stroke-linecap="round" stroke-linejoin="round"/>
<path d="M16.5 16.5161H17.25V17.2661H16.5V16.5161Z" stroke="#494949" stroke-width="1.5" stroke-linecap="round" stroke-linejoin="round"/>
</svg>
