<svg width="20" height="16" viewBox="0 0 20 16" fill="none" xmlns="http://www.w3.org/2000/svg">
<path d="M0.601125 15.2412C0.600514 15.2048 0.601125 15.2777 0.601125 15.2412ZM0.601125 15.2412C0.601125 11.7203 3.45439 11 6.9752 11C10.496 11 13.3502 11.611 13.3502 15.1318V15.1344C13.3502 15.17 13.3499 15.2056 13.3493 15.2412M15.6002 3.50684V6.50684M15.6002 6.50684V9.50684M15.6002 6.50684H18.6002M15.6002 6.50684H12.6002M10.3502 4C10.3502 5.86396 8.83917 7.375 6.9752 7.375C5.11124 7.375 3.60021 5.86396 3.60021 4C3.60021 2.13604 5.11124 0.625 6.9752 0.625C8.83917 0.625 10.3502 2.13604 10.3502 4Z" stroke="#838383" stroke-width="1.2" stroke-linecap="round" stroke-linejoin="round"/>
</svg>
